<?xml version="1.0" standalone="no"?>
<!DOCTYPE svg PUBLIC "-//W3C//DTD SVG 20010904//EN"
 "http://www.w3.org/TR/2001/REC-SVG-20010904/DTD/svg10.dtd">
<svg version="1.0" xmlns="http://www.w3.org/2000/svg"
 width="512.000000pt" height="512.000000pt" viewBox="0 0 512.000000 512.000000"
 preserveAspectRatio="xMidYMid meet">

<g transform="translate(0.000000,512.000000) scale(0.100000,-0.100000)"
fill="#000000" stroke="none">
<path d="M803 4696 c-185 -45 -343 -209 -382 -394 -16 -75 -16 -3409 0 -3484
39 -189 208 -358 397 -397 75 -16 3409 -16 3484 0 189 39 358 208 397 397 16
75 16 3409 0 3484 -30 144 -145 291 -273 352 -39 19 -95 39 -124 45 -82 17
-3429 14 -3499 -3z m3518 -217 c71 -33 125 -87 158 -158 l26 -56 0 -1705 0
-1705 -26 -56 c-33 -71 -87 -125 -158 -158 l-56 -26 -1705 0 -1705 0 -48 22
c-80 37 -123 78 -159 151 l-33 67 0 1705 0 1705 33 67 c45 92 123 151 221 168
25 4 800 7 1721 6 l1675 -1 56 -26z"/>
<path d="M1303 3975 c-114 -32 -198 -97 -244 -190 -20 -42 -24 -64 -24 -145 0
-79 4 -103 23 -143 93 -189 374 -272 579 -172 67 34 134 99 170 166 24 47 28
65 28 139 0 73 -4 93 -28 142 -37 75 -128 159 -204 189 -74 28 -224 36 -300
14z m254 -208 c50 -26 77 -72 78 -133 0 -60 -21 -97 -76 -129 -48 -28 -187
-28 -244 0 -61 31 -88 78 -82 144 3 48 8 59 41 87 21 18 54 37 74 43 52 14
171 8 209 -12z"/>
<path d="M1054 3139 l-29 -30 -3 -985 c-1 -652 1 -998 8 -1024 20 -75 20 -75
408 -75 l344 0 29 33 29 32 0 1011 0 1011 -29 29 -29 29 -349 0 -349 0 -30
-31z m586 -1039 l0 -870 -205 0 -205 0 0 870 0 870 205 0 205 0 0 -870z"/>
<path d="M1979 3141 l-29 -29 0 -1014 0 -1014 31 -30 30 -29 344 0 344 0 30
29 30 28 3 577 c4 533 5 580 23 626 45 122 99 166 210 173 98 6 150 -13 205
-75 75 -85 74 -77 80 -725 l5 -578 28 -27 27 -28 343 0 c388 0 387 0 408 78 7
27 9 232 6 661 -4 507 -7 635 -20 698 -69 347 -250 569 -547 669 -85 29 -111
33 -237 37 -179 6 -282 -15 -427 -86 -53 -27 -99 -46 -101 -43 -3 2 -5 20 -5
38 0 25 -8 43 -29 64 l-29 29 -347 0 -347 0 -29 -29z m581 -261 c0 -100 11
-135 51 -156 57 -29 83 -20 169 60 125 117 252 170 435 183 319 21 563 -159
647 -478 21 -81 22 -103 25 -671 l4 -588 -205 0 -206 0 0 503 c0 546 -2 572
-58 685 -133 272 -516 334 -721 117 -29 -30 -65 -83 -82 -118 -56 -120 -59
-155 -59 -694 l0 -493 -205 0 -205 0 0 870 0 870 205 0 205 0 0 -90z"/>
</g>
</svg>
